<mxfile host="app.diagrams.net" modified="2023-04-02T11:59:54.445Z" agent="Mozilla/5.0 (Windows NT 10.0; Win64; x64) AppleWebKit/537.36 (KHTML, like Gecko) Chrome/111.0.0.0 Safari/537.36" etag="ZQ6yavRaZT1fx1bvtQBI" version="21.1.2" type="github">
  <diagram name="Page-1" id="2YBvvXClWsGukQMizWep">
    <mxGraphModel dx="1235" dy="692" grid="1" gridSize="10" guides="1" tooltips="1" connect="1" arrows="1" fold="1" page="1" pageScale="1" pageWidth="850" pageHeight="1100" math="0" shadow="0">
      <root>
        <mxCell id="0" />
        <mxCell id="1" parent="0" />
        <mxCell id="uVXBUryUWw3osGIclSlN-1" value="" style="shape=umlLifeline;perimeter=lifelinePerimeter;whiteSpace=wrap;html=1;container=1;dropTarget=0;collapsible=0;recursiveResize=0;outlineConnect=0;portConstraint=eastwest;newEdgeStyle={&quot;edgeStyle&quot;:&quot;elbowEdgeStyle&quot;,&quot;elbow&quot;:&quot;vertical&quot;,&quot;curved&quot;:0,&quot;rounded&quot;:0};participant=umlActor;" vertex="1" parent="1">
          <mxGeometry x="110" y="120" width="20" height="560" as="geometry" />
        </mxCell>
        <mxCell id="uVXBUryUWw3osGIclSlN-17" value="" style="html=1;points=[];perimeter=orthogonalPerimeter;outlineConnect=0;targetShapes=umlLifeline;portConstraint=eastwest;newEdgeStyle={&quot;edgeStyle&quot;:&quot;elbowEdgeStyle&quot;,&quot;elbow&quot;:&quot;vertical&quot;,&quot;curved&quot;:0,&quot;rounded&quot;:0};" vertex="1" parent="uVXBUryUWw3osGIclSlN-1">
          <mxGeometry x="5" y="80" width="10" height="440" as="geometry" />
        </mxCell>
        <mxCell id="uVXBUryUWw3osGIclSlN-2" value="" style="shape=umlLifeline;perimeter=lifelinePerimeter;whiteSpace=wrap;html=1;container=1;dropTarget=0;collapsible=0;recursiveResize=0;outlineConnect=0;portConstraint=eastwest;newEdgeStyle={&quot;edgeStyle&quot;:&quot;elbowEdgeStyle&quot;,&quot;elbow&quot;:&quot;vertical&quot;,&quot;curved&quot;:0,&quot;rounded&quot;:0};participant=umlEntity;" vertex="1" parent="1">
          <mxGeometry x="425" y="230" width="40" height="450" as="geometry" />
        </mxCell>
        <mxCell id="uVXBUryUWw3osGIclSlN-23" value="" style="html=1;points=[];perimeter=orthogonalPerimeter;outlineConnect=0;targetShapes=umlLifeline;portConstraint=eastwest;newEdgeStyle={&quot;edgeStyle&quot;:&quot;elbowEdgeStyle&quot;,&quot;elbow&quot;:&quot;vertical&quot;,&quot;curved&quot;:0,&quot;rounded&quot;:0};" vertex="1" parent="uVXBUryUWw3osGIclSlN-2">
          <mxGeometry x="15" y="40" width="10" height="370" as="geometry" />
        </mxCell>
        <mxCell id="uVXBUryUWw3osGIclSlN-3" value=": Utilisateur" style="text;html=1;align=center;verticalAlign=middle;resizable=0;points=[];autosize=1;strokeColor=none;fillColor=none;" vertex="1" parent="1">
          <mxGeometry x="80" y="90" width="80" height="30" as="geometry" />
        </mxCell>
        <mxCell id="uVXBUryUWw3osGIclSlN-4" value=": Joueur" style="text;html=1;align=center;verticalAlign=middle;resizable=0;points=[];autosize=1;strokeColor=none;fillColor=none;" vertex="1" parent="1">
          <mxGeometry x="410" y="200" width="70" height="30" as="geometry" />
        </mxCell>
        <mxCell id="uVXBUryUWw3osGIclSlN-5" value="" style="shape=umlLifeline;perimeter=lifelinePerimeter;whiteSpace=wrap;html=1;container=1;dropTarget=0;collapsible=0;recursiveResize=0;outlineConnect=0;portConstraint=eastwest;newEdgeStyle={&quot;edgeStyle&quot;:&quot;elbowEdgeStyle&quot;,&quot;elbow&quot;:&quot;vertical&quot;,&quot;curved&quot;:0,&quot;rounded&quot;:0};participant=umlEntity;" vertex="1" parent="1">
          <mxGeometry x="585" y="400" width="40" height="280" as="geometry" />
        </mxCell>
        <mxCell id="uVXBUryUWw3osGIclSlN-35" value="" style="html=1;points=[];perimeter=orthogonalPerimeter;outlineConnect=0;targetShapes=umlLifeline;portConstraint=eastwest;newEdgeStyle={&quot;edgeStyle&quot;:&quot;elbowEdgeStyle&quot;,&quot;elbow&quot;:&quot;vertical&quot;,&quot;curved&quot;:0,&quot;rounded&quot;:0};" vertex="1" parent="uVXBUryUWw3osGIclSlN-5">
          <mxGeometry x="15" y="40" width="10" height="200" as="geometry" />
        </mxCell>
        <mxCell id="uVXBUryUWw3osGIclSlN-6" value=": Jeu" style="text;html=1;align=center;verticalAlign=middle;resizable=0;points=[];autosize=1;strokeColor=none;fillColor=none;" vertex="1" parent="1">
          <mxGeometry x="580" y="370" width="50" height="30" as="geometry" />
        </mxCell>
        <mxCell id="uVXBUryUWw3osGIclSlN-9" value="" style="shape=umlLifeline;perimeter=lifelinePerimeter;whiteSpace=wrap;html=1;container=1;dropTarget=0;collapsible=0;recursiveResize=0;outlineConnect=0;portConstraint=eastwest;newEdgeStyle={&quot;edgeStyle&quot;:&quot;elbowEdgeStyle&quot;,&quot;elbow&quot;:&quot;vertical&quot;,&quot;curved&quot;:0,&quot;rounded&quot;:0};participant=umlControl;" vertex="1" parent="1">
          <mxGeometry x="265" y="120" width="40" height="560" as="geometry" />
        </mxCell>
        <mxCell id="uVXBUryUWw3osGIclSlN-18" value="" style="html=1;points=[];perimeter=orthogonalPerimeter;outlineConnect=0;targetShapes=umlLifeline;portConstraint=eastwest;newEdgeStyle={&quot;edgeStyle&quot;:&quot;elbowEdgeStyle&quot;,&quot;elbow&quot;:&quot;vertical&quot;,&quot;curved&quot;:0,&quot;rounded&quot;:0};" vertex="1" parent="uVXBUryUWw3osGIclSlN-9">
          <mxGeometry x="15" y="80" width="10" height="440" as="geometry" />
        </mxCell>
        <mxCell id="uVXBUryUWw3osGIclSlN-19" value="" style="html=1;points=[];perimeter=orthogonalPerimeter;outlineConnect=0;targetShapes=umlLifeline;portConstraint=eastwest;newEdgeStyle={&quot;edgeStyle&quot;:&quot;elbowEdgeStyle&quot;,&quot;elbow&quot;:&quot;vertical&quot;,&quot;curved&quot;:0,&quot;rounded&quot;:0};" vertex="1" parent="uVXBUryUWw3osGIclSlN-9">
          <mxGeometry x="25" y="110" width="10" height="80" as="geometry" />
        </mxCell>
        <mxCell id="uVXBUryUWw3osGIclSlN-20" value="1.1 : Vérifier nom()" style="html=1;align=left;spacingLeft=2;endArrow=block;rounded=0;edgeStyle=orthogonalEdgeStyle;curved=0;rounded=0;" edge="1" target="uVXBUryUWw3osGIclSlN-19" parent="uVXBUryUWw3osGIclSlN-9" source="uVXBUryUWw3osGIclSlN-18">
          <mxGeometry relative="1" as="geometry">
            <mxPoint x="45" y="70" as="sourcePoint" />
            <Array as="points">
              <mxPoint x="55" y="80" />
              <mxPoint x="55" y="110" />
            </Array>
          </mxGeometry>
        </mxCell>
        <mxCell id="uVXBUryUWw3osGIclSlN-31" value="" style="html=1;points=[];perimeter=orthogonalPerimeter;outlineConnect=0;targetShapes=umlLifeline;portConstraint=eastwest;newEdgeStyle={&quot;edgeStyle&quot;:&quot;elbowEdgeStyle&quot;,&quot;elbow&quot;:&quot;vertical&quot;,&quot;curved&quot;:0,&quot;rounded&quot;:0};" vertex="1" parent="uVXBUryUWw3osGIclSlN-9">
          <mxGeometry x="25" y="280" width="10" height="90" as="geometry" />
        </mxCell>
        <mxCell id="uVXBUryUWw3osGIclSlN-32" value="2.1 : vérifier &lt;br&gt;&amp;nbsp; paramètres()&amp;nbsp;" style="html=1;align=left;spacingLeft=2;endArrow=block;rounded=0;edgeStyle=orthogonalEdgeStyle;curved=0;rounded=0;" edge="1" target="uVXBUryUWw3osGIclSlN-31" parent="uVXBUryUWw3osGIclSlN-9" source="uVXBUryUWw3osGIclSlN-18">
          <mxGeometry relative="1" as="geometry">
            <mxPoint x="45" y="300" as="sourcePoint" />
            <Array as="points">
              <mxPoint x="55" y="250" />
              <mxPoint x="55" y="280" />
            </Array>
          </mxGeometry>
        </mxCell>
        <mxCell id="uVXBUryUWw3osGIclSlN-10" value=": Controleur" style="text;html=1;align=center;verticalAlign=middle;resizable=0;points=[];autosize=1;strokeColor=none;fillColor=none;" vertex="1" parent="1">
          <mxGeometry x="240" y="90" width="90" height="30" as="geometry" />
        </mxCell>
        <mxCell id="uVXBUryUWw3osGIclSlN-11" style="edgeStyle=elbowEdgeStyle;rounded=0;orthogonalLoop=1;jettySize=auto;html=1;elbow=vertical;curved=0;" edge="1" parent="1" source="uVXBUryUWw3osGIclSlN-1" target="uVXBUryUWw3osGIclSlN-9">
          <mxGeometry relative="1" as="geometry">
            <Array as="points">
              <mxPoint x="210" y="200" />
            </Array>
          </mxGeometry>
        </mxCell>
        <mxCell id="uVXBUryUWw3osGIclSlN-14" value="1 : Saisir nom()" style="edgeLabel;html=1;align=center;verticalAlign=middle;resizable=0;points=[];" vertex="1" connectable="0" parent="uVXBUryUWw3osGIclSlN-11">
          <mxGeometry x="-0.2541" y="2" relative="1" as="geometry">
            <mxPoint x="19" y="-6" as="offset" />
          </mxGeometry>
        </mxCell>
        <mxCell id="uVXBUryUWw3osGIclSlN-21" style="edgeStyle=elbowEdgeStyle;rounded=0;orthogonalLoop=1;jettySize=auto;html=1;elbow=vertical;curved=0;" edge="1" parent="1" target="uVXBUryUWw3osGIclSlN-2">
          <mxGeometry relative="1" as="geometry">
            <mxPoint x="300" y="270" as="sourcePoint" />
            <Array as="points">
              <mxPoint x="410" y="270" />
            </Array>
          </mxGeometry>
        </mxCell>
        <mxCell id="uVXBUryUWw3osGIclSlN-22" value="1.2 : Créer Joueur()" style="edgeLabel;html=1;align=center;verticalAlign=middle;resizable=0;points=[];" vertex="1" connectable="0" parent="uVXBUryUWw3osGIclSlN-21">
          <mxGeometry x="-0.0702" y="1" relative="1" as="geometry">
            <mxPoint x="6" y="-7" as="offset" />
          </mxGeometry>
        </mxCell>
        <mxCell id="uVXBUryUWw3osGIclSlN-24" style="edgeStyle=elbowEdgeStyle;rounded=0;orthogonalLoop=1;jettySize=auto;html=1;elbow=vertical;curved=0;dashed=1;" edge="1" parent="1" source="uVXBUryUWw3osGIclSlN-23">
          <mxGeometry relative="1" as="geometry">
            <mxPoint x="300" y="300" as="targetPoint" />
            <Array as="points">
              <mxPoint x="380" y="300" />
              <mxPoint x="370" y="290" />
              <mxPoint x="340" y="300" />
              <mxPoint x="350" y="300" />
            </Array>
          </mxGeometry>
        </mxCell>
        <mxCell id="uVXBUryUWw3osGIclSlN-27" style="edgeStyle=elbowEdgeStyle;rounded=0;orthogonalLoop=1;jettySize=auto;html=1;elbow=vertical;curved=0;" edge="1" parent="1" source="uVXBUryUWw3osGIclSlN-18" target="uVXBUryUWw3osGIclSlN-17">
          <mxGeometry relative="1" as="geometry">
            <Array as="points">
              <mxPoint x="200" y="310" />
              <mxPoint x="170" y="310" />
            </Array>
          </mxGeometry>
        </mxCell>
        <mxCell id="uVXBUryUWw3osGIclSlN-40" value="1.3 : Envoie Formulaire()" style="edgeLabel;html=1;align=center;verticalAlign=middle;resizable=0;points=[];" vertex="1" connectable="0" parent="uVXBUryUWw3osGIclSlN-27">
          <mxGeometry x="-0.2516" y="2" relative="1" as="geometry">
            <mxPoint x="-14" y="-10" as="offset" />
          </mxGeometry>
        </mxCell>
        <mxCell id="uVXBUryUWw3osGIclSlN-29" style="edgeStyle=elbowEdgeStyle;rounded=0;orthogonalLoop=1;jettySize=auto;html=1;elbow=vertical;curved=0;" edge="1" parent="1" source="uVXBUryUWw3osGIclSlN-17" target="uVXBUryUWw3osGIclSlN-18">
          <mxGeometry relative="1" as="geometry">
            <Array as="points">
              <mxPoint x="210" y="370" />
            </Array>
          </mxGeometry>
        </mxCell>
        <mxCell id="uVXBUryUWw3osGIclSlN-30" value="2 : Initialiser partie()" style="edgeLabel;html=1;align=center;verticalAlign=middle;resizable=0;points=[];" vertex="1" connectable="0" parent="uVXBUryUWw3osGIclSlN-29">
          <mxGeometry x="-0.1097" y="4" relative="1" as="geometry">
            <mxPoint x="6" y="-4" as="offset" />
          </mxGeometry>
        </mxCell>
        <mxCell id="uVXBUryUWw3osGIclSlN-33" value="&lt;font style=&quot;font-size: 10px;&quot;&gt;&lt;i&gt;Si ok&amp;nbsp;&lt;/i&gt;&lt;/font&gt;" style="text;html=1;align=center;verticalAlign=middle;resizable=0;points=[];autosize=1;strokeColor=none;fillColor=none;fontColor=#FF6666;" vertex="1" parent="1">
          <mxGeometry x="290" y="262" width="50" height="30" as="geometry" />
        </mxCell>
        <mxCell id="uVXBUryUWw3osGIclSlN-34" style="edgeStyle=elbowEdgeStyle;rounded=0;orthogonalLoop=1;jettySize=auto;html=1;elbow=vertical;curved=0;" edge="1" parent="1" source="uVXBUryUWw3osGIclSlN-31" target="uVXBUryUWw3osGIclSlN-5">
          <mxGeometry relative="1" as="geometry">
            <Array as="points">
              <mxPoint x="430" y="440" />
            </Array>
          </mxGeometry>
        </mxCell>
        <mxCell id="uVXBUryUWw3osGIclSlN-37" value="2.2 : Créer Jeu()" style="edgeLabel;html=1;align=center;verticalAlign=middle;resizable=0;points=[];" vertex="1" connectable="0" parent="uVXBUryUWw3osGIclSlN-34">
          <mxGeometry x="-0.3366" y="4" relative="1" as="geometry">
            <mxPoint x="44" y="-4" as="offset" />
          </mxGeometry>
        </mxCell>
        <mxCell id="uVXBUryUWw3osGIclSlN-36" value="&lt;font style=&quot;font-size: 10px;&quot;&gt;&lt;i&gt;Si ok&amp;nbsp;&lt;/i&gt;&lt;/font&gt;" style="text;html=1;align=center;verticalAlign=middle;resizable=0;points=[];autosize=1;strokeColor=none;fillColor=none;fontColor=#FF6666;" vertex="1" parent="1">
          <mxGeometry x="290" y="430" width="50" height="30" as="geometry" />
        </mxCell>
        <mxCell id="uVXBUryUWw3osGIclSlN-39" style="edgeStyle=elbowEdgeStyle;rounded=0;orthogonalLoop=1;jettySize=auto;html=1;elbow=vertical;curved=0;" edge="1" parent="1" source="uVXBUryUWw3osGIclSlN-18" target="uVXBUryUWw3osGIclSlN-17">
          <mxGeometry relative="1" as="geometry">
            <mxPoint x="160" y="510" as="targetPoint" />
            <Array as="points">
              <mxPoint x="210" y="490" />
            </Array>
          </mxGeometry>
        </mxCell>
        <mxCell id="uVXBUryUWw3osGIclSlN-47" value="2.4 : Création fil d&#39;attente()" style="edgeLabel;html=1;align=center;verticalAlign=middle;resizable=0;points=[];" vertex="1" connectable="0" parent="uVXBUryUWw3osGIclSlN-39">
          <mxGeometry x="0.4194" y="3" relative="1" as="geometry">
            <mxPoint x="35" y="-11" as="offset" />
          </mxGeometry>
        </mxCell>
        <mxCell id="uVXBUryUWw3osGIclSlN-44" style="edgeStyle=elbowEdgeStyle;rounded=0;orthogonalLoop=1;jettySize=auto;html=1;elbow=vertical;curved=0;entryX=1;entryY=1;entryDx=0;entryDy=0;entryPerimeter=0;" edge="1" parent="1" source="uVXBUryUWw3osGIclSlN-35" target="uVXBUryUWw3osGIclSlN-31">
          <mxGeometry relative="1" as="geometry">
            <Array as="points">
              <mxPoint x="530" y="490" />
            </Array>
          </mxGeometry>
        </mxCell>
        <mxCell id="uVXBUryUWw3osGIclSlN-45" value="2.3 : Ajout joueur()" style="edgeLabel;html=1;align=center;verticalAlign=middle;resizable=0;points=[];" vertex="1" connectable="0" parent="uVXBUryUWw3osGIclSlN-44">
          <mxGeometry x="-0.2533" y="-2" relative="1" as="geometry">
            <mxPoint x="-38" y="-6" as="offset" />
          </mxGeometry>
        </mxCell>
        <mxCell id="uVXBUryUWw3osGIclSlN-49" style="edgeStyle=elbowEdgeStyle;rounded=0;orthogonalLoop=1;jettySize=auto;html=1;elbow=vertical;curved=0;" edge="1" parent="1" source="uVXBUryUWw3osGIclSlN-18">
          <mxGeometry relative="1" as="geometry">
            <mxPoint x="600" y="550" as="targetPoint" />
            <Array as="points">
              <mxPoint x="500" y="550" />
            </Array>
          </mxGeometry>
        </mxCell>
        <mxCell id="uVXBUryUWw3osGIclSlN-50" value="3 : Vérifier&amp;nbsp; joueur complet()" style="edgeLabel;html=1;align=center;verticalAlign=middle;resizable=0;points=[];" vertex="1" connectable="0" parent="uVXBUryUWw3osGIclSlN-49">
          <mxGeometry x="0.2493" y="2" relative="1" as="geometry">
            <mxPoint x="-34" y="-6" as="offset" />
          </mxGeometry>
        </mxCell>
        <mxCell id="uVXBUryUWw3osGIclSlN-51" style="edgeStyle=elbowEdgeStyle;rounded=0;orthogonalLoop=1;jettySize=auto;html=1;elbow=vertical;curved=0;dashed=1;" edge="1" parent="1" source="uVXBUryUWw3osGIclSlN-35" target="uVXBUryUWw3osGIclSlN-18">
          <mxGeometry relative="1" as="geometry">
            <mxPoint x="320" y="610" as="targetPoint" />
            <Array as="points">
              <mxPoint x="560" y="570" />
              <mxPoint x="530" y="580" />
              <mxPoint x="440" y="610" />
            </Array>
          </mxGeometry>
        </mxCell>
        <mxCell id="uVXBUryUWw3osGIclSlN-53" style="edgeStyle=elbowEdgeStyle;rounded=0;orthogonalLoop=1;jettySize=auto;html=1;elbow=vertical;curved=0;" edge="1" parent="1" source="uVXBUryUWw3osGIclSlN-18" target="uVXBUryUWw3osGIclSlN-17">
          <mxGeometry relative="1" as="geometry">
            <mxPoint x="130" y="570" as="targetPoint" />
            <Array as="points">
              <mxPoint x="210" y="570" />
            </Array>
          </mxGeometry>
        </mxCell>
        <mxCell id="uVXBUryUWw3osGIclSlN-54" value="3.1 : Début partie()" style="edgeLabel;html=1;align=center;verticalAlign=middle;resizable=0;points=[];" vertex="1" connectable="0" parent="uVXBUryUWw3osGIclSlN-53">
          <mxGeometry x="0.1657" y="3" relative="1" as="geometry">
            <mxPoint x="10" y="-11" as="offset" />
          </mxGeometry>
        </mxCell>
        <mxCell id="uVXBUryUWw3osGIclSlN-55" value="&lt;font style=&quot;font-size: 10px;&quot;&gt;&lt;i&gt;Si ok&amp;nbsp;&lt;/i&gt;&lt;/font&gt;" style="text;html=1;align=center;verticalAlign=middle;resizable=0;points=[];autosize=1;strokeColor=none;fillColor=none;fontColor=#FF6666;" vertex="1" parent="1">
          <mxGeometry x="240" y="560" width="50" height="30" as="geometry" />
        </mxCell>
      </root>
    </mxGraphModel>
  </diagram>
</mxfile>
